<svg width="40" height="40" viewBox="0 0 40 40" fill="none" xmlns="http://www.w3.org/2000/svg">
<path d="M9 0.75H26.0439L34.25 8.28711V36C34.25 37.7949 32.7948 39.2499 31 39.25H9C7.20507 39.25 5.75 37.7949 5.75 36V4C5.75 2.20508 7.20508 0.75 9 0.75Z" stroke="#D0D5DD" stroke-width="1.5"/>
<mask id="path-2-inside-1_2001_3697" fill="white">
<path d="M25 1H33.5V9.5H26C25.4477 9.5 25 9.05229 25 8.5V1Z"/>
</mask>
<path d="M25 1H33.5H25ZM33.5 10.5H26C24.8954 10.5 24 9.60457 24 8.5H26H33.5V10.5ZM26 10.5C24.8954 10.5 24 9.60457 24 8.5V1H26V8.5V10.5ZM33.5 1V9.5V1Z" fill="#D0D5DD" mask="url(#path-2-inside-1_2001_3697)"/>
<rect x="1" y="20" width="24" height="13" rx="2" fill="#6172F3"/>
<path d="M8.47828 28.76H5.85828L5.43828 30H3.64828L6.18828 22.98H8.16828L10.7083 30H8.89828L8.47828 28.76ZM8.03828 27.44L7.16828 24.87L6.30828 27.44H8.03828ZM13.1913 24.35V25.77H15.4813V27.09H13.1913V28.63H15.7813V30H11.4813V22.98H15.7813V24.35H13.1913ZM22.2415 25.24C22.2415 25.6467 22.1482 26.02 21.9615 26.36C21.7748 26.6933 21.4882 26.9633 21.1015 27.17C20.7148 27.3767 20.2348 27.48 19.6615 27.48H18.6015V30H16.8915V22.98H19.6615C20.2215 22.98 20.6948 23.0767 21.0815 23.27C21.4682 23.4633 21.7582 23.73 21.9515 24.07C22.1448 24.41 22.2415 24.8 22.2415 25.24ZM19.5315 26.12C19.8582 26.12 20.1015 26.0433 20.2615 25.89C20.4215 25.7367 20.5015 25.52 20.5015 25.24C20.5015 24.96 20.4215 24.7433 20.2615 24.59C20.1015 24.4367 19.8582 24.36 19.5315 24.36H18.6015V26.12H19.5315Z" fill="white"/>
</svg>
