<svg width="40" height="40" viewBox="0 0 40 40" fill="none" xmlns="http://www.w3.org/2000/svg">
<path d="M9 0.75H26.0439L34.25 8.28711V36C34.25 37.7949 32.7948 39.2499 31 39.25H9C7.20507 39.25 5.75 37.7949 5.75 36V4C5.75 2.20508 7.20508 0.75 9 0.75Z" stroke="#D0D5DD" stroke-width="1.5"/>
<mask id="path-2-inside-1_2001_3589" fill="white">
<path d="M25 1H33.5V9.5H26C25.4477 9.5 25 9.05229 25 8.5V1Z"/>
</mask>
<path d="M25 1H33.5H25ZM33.5 10.5H26C24.8954 10.5 24 9.60457 24 8.5H26H33.5V10.5ZM26 10.5C24.8954 10.5 24 9.60457 24 8.5V1H26V8.5V10.5ZM33.5 1V9.5V1Z" fill="#D0D5DD" mask="url(#path-2-inside-1_2001_3589)"/>
<rect x="1" y="20" width="15" height="13" rx="2" fill="#6172F3"/>
<path d="M8.32887 28.76H5.70887L5.28887 30H3.49887L6.03887 22.98H8.01887L10.5589 30H8.74887L8.32887 28.76ZM7.88887 27.44L7.01887 24.87L6.15887 27.44H7.88887ZM13.0419 22.98V30H11.3319V22.98H13.0419Z" fill="white"/>
</svg>
