<svg width="40" height="40" viewBox="0 0 40 40" fill="none" xmlns="http://www.w3.org/2000/svg">
<path d="M9 0.75H26.0439L34.25 8.28711V36C34.25 37.7949 32.7948 39.2499 31 39.25H9C7.20507 39.25 5.75 37.7949 5.75 36V4C5.75 2.20508 7.20508 0.75 9 0.75Z" stroke="#D0D5DD" stroke-width="1.5"/>
<mask id="path-2-inside-1_2001_3553" fill="white">
<path d="M25 1H33.5V9.5H26C25.4477 9.5 25 9.05229 25 8.5V1Z"/>
</mask>
<path d="M25 1H33.5H25ZM33.5 10.5H26C24.8954 10.5 24 9.60457 24 8.5H26H33.5V10.5ZM26 10.5C24.8954 10.5 24 9.60457 24 8.5V1H26V8.5V10.5ZM33.5 1V9.5V1Z" fill="#D0D5DD" mask="url(#path-2-inside-1_2001_3553)"/>
<rect x="1" y="20" width="21" height="13" rx="2" fill="#6172F3"/>
<path d="M8.67242 22.98V24.35H5.81242V25.83H7.95242V27.16H5.81242V30H4.10242V22.98H8.67242ZM11.2812 22.98V30H9.57117V22.98H11.2812ZM17.1804 25.2C17.0537 24.9667 16.8704 24.79 16.6304 24.67C16.3971 24.5433 16.1204 24.48 15.8004 24.48C15.2471 24.48 14.8037 24.6633 14.4704 25.03C14.1371 25.39 13.9704 25.8733 13.9704 26.48C13.9704 27.1267 14.1437 27.6333 14.4904 28C14.8437 28.36 15.3271 28.54 15.9404 28.54C16.3604 28.54 16.7137 28.4333 17.0004 28.22C17.2937 28.0067 17.5071 27.7 17.6404 27.3H15.4704V26.04H19.1904V27.63C19.0637 28.0567 18.8471 28.4533 18.5404 28.82C18.2404 29.1867 17.8571 29.4833 17.3904 29.71C16.9237 29.9367 16.3971 30.05 15.8104 30.05C15.1171 30.05 14.4971 29.9 13.9504 29.6C13.4104 29.2933 12.9871 28.87 12.6804 28.33C12.3804 27.79 12.2304 27.1733 12.2304 26.48C12.2304 25.7867 12.3804 25.17 12.6804 24.63C12.9871 24.0833 13.4104 23.66 13.9504 23.36C14.4904 23.0533 15.1071 22.9 15.8004 22.9C16.6404 22.9 17.3471 23.1033 17.9204 23.51C18.5004 23.9167 18.8837 24.48 19.0704 25.2H17.1804Z" fill="white"/>
</svg>
