<svg width="40" height="40" viewBox="0 0 40 40" fill="none" xmlns="http://www.w3.org/2000/svg">
<path d="M9 0.75H26.0439L34.25 8.28711V36C34.25 37.7949 32.7948 39.2499 31 39.25H9C7.20507 39.25 5.75 37.7949 5.75 36V4C5.75 2.20508 7.20508 0.75 9 0.75Z" stroke="#D0D5DD" stroke-width="1.5"/>
<mask id="path-2-inside-1_2001_3661" fill="white">
<path d="M25 1H33.5V9.5H26C25.4477 9.5 25 9.05229 25 8.5V1Z"/>
</mask>
<path d="M25 1H33.5H25ZM33.5 10.5H26C24.8954 10.5 24 9.60457 24 8.5H26H33.5V10.5ZM26 10.5C24.8954 10.5 24 9.60457 24 8.5V1H26V8.5V10.5ZM33.5 1V9.5V1Z" fill="#D0D5DD" mask="url(#path-2-inside-1_2001_3661)"/>
<rect x="1" y="20" width="29" height="13" rx="2" fill="#6172F3"/>
<path d="M5.33 22.98V30H3.62V22.98H5.33ZM12.8492 30H11.1392L8.27922 25.67V30H6.56922V22.98H8.27922L11.1392 27.33V22.98H12.8492V30ZM16.7188 22.98C17.4588 22.98 18.1054 23.1267 18.6588 23.42C19.2121 23.7133 19.6388 24.1267 19.9388 24.66C20.2454 25.1867 20.3988 25.7967 20.3988 26.49C20.3988 27.1767 20.2454 27.7867 19.9388 28.32C19.6388 28.8533 19.2088 29.2667 18.6488 29.56C18.0954 29.8533 17.4521 30 16.7188 30H14.0888V22.98H16.7188ZM16.6088 28.52C17.2554 28.52 17.7588 28.3433 18.1188 27.99C18.4788 27.6367 18.6588 27.1367 18.6588 26.49C18.6588 25.8433 18.4788 25.34 18.1188 24.98C17.7588 24.62 17.2554 24.44 16.6088 24.44H15.7988V28.52H16.6088ZM23.9844 22.98C24.7244 22.98 25.371 23.1267 25.9244 23.42C26.4777 23.7133 26.9044 24.1267 27.2044 24.66C27.511 25.1867 27.6644 25.7967 27.6644 26.49C27.6644 27.1767 27.511 27.7867 27.2044 28.32C26.9044 28.8533 26.4744 29.2667 25.9144 29.56C25.361 29.8533 24.7177 30 23.9844 30H21.3544V22.98H23.9844ZM23.8744 28.52C24.521 28.52 25.0244 28.3433 25.3844 27.99C25.7444 27.6367 25.9244 27.1367 25.9244 26.49C25.9244 25.8433 25.7444 25.34 25.3844 24.98C25.0244 24.62 24.521 24.44 23.8744 24.44H23.0644V28.52H23.8744Z" fill="white"/>
</svg>
