<svg width="40" height="40" viewBox="0 0 40 40" fill="none" xmlns="http://www.w3.org/2000/svg">
<path d="M9 0.75H26.0439L34.25 8.28711V36C34.25 37.7949 32.7948 39.2499 31 39.25H9C7.20507 39.25 5.75 37.7949 5.75 36V4C5.75 2.20508 7.20508 0.75 9 0.75Z" stroke="#D0D5DD" stroke-width="1.5"/>
<mask id="path-2-inside-1_2001_3721" fill="white">
<path d="M25 1H33.5V9.5H26C25.4477 9.5 25 9.05229 25 8.5V1Z"/>
</mask>
<path d="M25 1H33.5H25ZM33.5 10.5H26C24.8954 10.5 24 9.60457 24 8.5H26H33.5V10.5ZM26 10.5C24.8954 10.5 24 9.60457 24 8.5V1H26V8.5V10.5ZM33.5 1V9.5V1Z" fill="#D0D5DD" mask="url(#path-2-inside-1_2001_3721)"/>
<rect x="1" y="20" width="28" height="13" rx="2" fill="#FDB022"/>
<path d="M11.8415 22.98V30H10.1315V25.79L8.56148 30H7.18148L5.60148 25.78V30H3.89148V22.98H5.91148L7.88148 27.84L9.83148 22.98H11.8415ZM17.1412 30L14.7812 26.9V30H13.0712V22.98H14.7812V26.06L17.1212 22.98H19.1312L16.4112 26.42L19.2312 30H17.1412ZM26.6338 22.98L24.1438 30H22.0038L19.5138 22.98H21.3338L23.0738 28.28L24.8238 22.98H26.6338Z" fill="white"/>
</svg>
