<svg width="40" height="40" viewBox="0 0 40 40" fill="none" xmlns="http://www.w3.org/2000/svg">
<path d="M9 0.75H26.0439L34.25 8.28711V36C34.25 37.7949 32.7948 39.2499 31 39.25H9C7.20507 39.25 5.75 37.7949 5.75 36V4C5.75 2.20508 7.20508 0.75 9 0.75Z" stroke="#D0D5DD" stroke-width="1.5"/>
<mask id="path-2-inside-1_2001_3571" fill="white">
<path d="M25 1H33.5V9.5H26C25.4477 9.5 25 9.05229 25 8.5V1Z"/>
</mask>
<path d="M25 1H33.5H25ZM33.5 10.5H26C24.8954 10.5 24 9.60457 24 8.5H26H33.5V10.5ZM26 10.5C24.8954 10.5 24 9.60457 24 8.5V1H26V8.5V10.5ZM33.5 1V9.5V1Z" fill="#D0D5DD" mask="url(#path-2-inside-1_2001_3571)"/>
<rect x="1" y="20" width="26" height="13" rx="2" fill="#DC6803"/>
<path d="M11.8327 22.98V30H10.1227V25.79L8.5527 30H7.1727L5.5927 25.78V30H3.8827V22.98H5.9027L7.8727 27.84L9.8227 22.98H11.8327ZM18.4124 25.24C18.4124 25.6467 18.319 26.02 18.1324 26.36C17.9457 26.6933 17.659 26.9633 17.2724 27.17C16.8857 27.3767 16.4057 27.48 15.8324 27.48H14.7724V30H13.0624V22.98H15.8324C16.3924 22.98 16.8657 23.0767 17.2524 23.27C17.639 23.4633 17.929 23.73 18.1224 24.07C18.3157 24.41 18.4124 24.8 18.4124 25.24ZM15.7024 26.12C16.029 26.12 16.2724 26.0433 16.4324 25.89C16.5924 25.7367 16.6724 25.52 16.6724 25.24C16.6724 24.96 16.5924 24.7433 16.4324 24.59C16.2724 24.4367 16.029 24.36 15.7024 24.36H14.7724V26.12H15.7024ZM19.1926 24.76C19.2193 24.0467 19.4526 23.4967 19.8926 23.11C20.3326 22.7233 20.9293 22.53 21.6826 22.53C22.1826 22.53 22.6093 22.6167 22.9626 22.79C23.3226 22.9633 23.5926 23.2 23.7726 23.5C23.9593 23.8 24.0526 24.1367 24.0526 24.51C24.0526 24.95 23.9426 25.31 23.7226 25.59C23.5026 25.8633 23.246 26.05 22.9526 26.15V26.19C23.3326 26.3167 23.6326 26.5267 23.8526 26.82C24.0726 27.1133 24.1826 27.49 24.1826 27.95C24.1826 28.3633 24.086 28.73 23.8926 29.05C23.706 29.3633 23.4293 29.61 23.0626 29.79C22.7026 29.97 22.2726 30.06 21.7726 30.06C20.9726 30.06 20.3326 29.8633 19.8526 29.47C19.3793 29.0767 19.1293 28.4833 19.1026 27.69H20.7626C20.7693 27.9833 20.8526 28.2167 21.0126 28.39C21.1726 28.5567 21.406 28.64 21.7126 28.64C21.9726 28.64 22.1726 28.5667 22.3126 28.42C22.4593 28.2667 22.5326 28.0667 22.5326 27.82C22.5326 27.5 22.4293 27.27 22.2226 27.13C22.0226 26.9833 21.6993 26.91 21.2526 26.91H20.9326V25.52H21.2526C21.5926 25.52 21.866 25.4633 22.0726 25.35C22.286 25.23 22.3926 25.02 22.3926 24.72C22.3926 24.48 22.326 24.2933 22.1926 24.16C22.0593 24.0267 21.876 23.96 21.6426 23.96C21.3893 23.96 21.1993 24.0367 21.0726 24.19C20.9526 24.3433 20.8826 24.5333 20.8626 24.76H19.1926Z" fill="white"/>
</svg>
