<svg width="40" height="40" viewBox="0 0 40 40" fill="none" xmlns="http://www.w3.org/2000/svg">
<path d="M9 0.75H26.0439L34.25 8.28711V36C34.25 37.7949 32.7948 39.2499 31 39.25H9C7.20507 39.25 5.75 37.7949 5.75 36V4C5.75 2.20508 7.20508 0.75 9 0.75Z" stroke="#D0D5DD" stroke-width="1.5"/>
<mask id="path-2-inside-1_2001_3679" fill="white">
<path d="M25 1H33.5V9.5H26C25.4477 9.5 25 9.05229 25 8.5V1Z"/>
</mask>
<path d="M25 1H33.5H25ZM33.5 10.5H26C24.8954 10.5 24 9.60457 24 8.5H26H33.5V10.5ZM26 10.5C24.8954 10.5 24 9.60457 24 8.5V1H26V8.5V10.5ZM33.5 1V9.5V1Z" fill="#D0D5DD" mask="url(#path-2-inside-1_2001_3679)"/>
<rect x="1" y="20" width="33" height="13" rx="2" fill="#FDB022"/>
<path d="M11.8464 22.98V30H10.1364V25.79L8.56637 30H7.18637L5.60637 25.78V30H3.89637V22.98H5.91637L7.88637 27.84L9.83637 22.98H11.8464ZM18.4261 25.24C18.4261 25.6467 18.3327 26.02 18.1461 26.36C17.9594 26.6933 17.6727 26.9633 17.2861 27.17C16.8994 27.3767 16.4194 27.48 15.8461 27.48H14.7861V30H13.0761V22.98H15.8461C16.4061 22.98 16.8794 23.0767 17.2661 23.27C17.6527 23.4633 17.9427 23.73 18.1361 24.07C18.3294 24.41 18.4261 24.8 18.4261 25.24ZM15.7161 26.12C16.0427 26.12 16.2861 26.0433 16.4461 25.89C16.6061 25.7367 16.6861 25.52 16.6861 25.24C16.6861 24.96 16.6061 24.7433 16.4461 24.59C16.2861 24.4367 16.0427 24.36 15.7161 24.36H14.7861V26.12H15.7161ZM21.0263 24.35V25.77H23.3163V27.09H21.0263V28.63H23.6163V30H19.3163V22.98H23.6163V24.35H21.0263ZM29.3864 25.2C29.2598 24.9667 29.0764 24.79 28.8364 24.67C28.6031 24.5433 28.3264 24.48 28.0064 24.48C27.4531 24.48 27.0098 24.6633 26.6764 25.03C26.3431 25.39 26.1764 25.8733 26.1764 26.48C26.1764 27.1267 26.3498 27.6333 26.6964 28C27.0498 28.36 27.5331 28.54 28.1464 28.54C28.5664 28.54 28.9198 28.4333 29.2064 28.22C29.4998 28.0067 29.7131 27.7 29.8464 27.3H27.6764V26.04H31.3964V27.63C31.2698 28.0567 31.0531 28.4533 30.7464 28.82C30.4464 29.1867 30.0631 29.4833 29.5964 29.71C29.1298 29.9367 28.6031 30.05 28.0164 30.05C27.3231 30.05 26.7031 29.9 26.1564 29.6C25.6164 29.2933 25.1931 28.87 24.8864 28.33C24.5864 27.79 24.4364 27.1733 24.4364 26.48C24.4364 25.7867 24.5864 25.17 24.8864 24.63C25.1931 24.0833 25.6164 23.66 26.1564 23.36C26.6964 23.0533 27.3131 22.9 28.0064 22.9C28.8464 22.9 29.5531 23.1033 30.1264 23.51C30.7064 23.9167 31.0898 24.48 31.2764 25.2H29.3864Z" fill="white"/>
</svg>
