<svg width="40" height="40" viewBox="0 0 40 40" fill="none" xmlns="http://www.w3.org/2000/svg">
<path d="M9 0.75H26.0439L34.25 8.28711V36C34.25 37.7949 32.7948 39.2499 31 39.25H9C7.20507 39.25 5.75 37.7949 5.75 36V4C5.75 2.20508 7.20508 0.75 9 0.75Z" stroke="#D0D5DD" stroke-width="1.5"/>
<mask id="path-2-inside-1_2001_3625" fill="white">
<path d="M25 1H33.5V9.5H26C25.4477 9.5 25 9.05229 25 8.5V1Z"/>
</mask>
<path d="M25 1H33.5H25ZM33.5 10.5H26C24.8954 10.5 24 9.60457 24 8.5H26H33.5V10.5ZM26 10.5C24.8954 10.5 24 9.60457 24 8.5V1H26V8.5V10.5ZM33.5 1V9.5V1Z" fill="#D0D5DD" mask="url(#path-2-inside-1_2001_3625)"/>
<rect x="1" y="20" width="22" height="13" rx="2" fill="#6172F3"/>
<path d="M8.1409 25.24C8.1409 25.6467 8.04757 26.02 7.8609 26.36C7.67423 26.6933 7.38757 26.9633 7.0009 27.17C6.61423 27.3767 6.13423 27.48 5.5609 27.48H4.5009V30H2.7909V22.98H5.5609C6.1209 22.98 6.59423 23.0767 6.9809 23.27C7.36757 23.4633 7.65757 23.73 7.8509 24.07C8.04423 24.41 8.1409 24.8 8.1409 25.24ZM5.4309 26.12C5.75757 26.12 6.0009 26.0433 6.1609 25.89C6.3209 25.7367 6.4009 25.52 6.4009 25.24C6.4009 24.96 6.3209 24.7433 6.1609 24.59C6.0009 24.4367 5.75757 24.36 5.4309 24.36H4.5009V26.12H5.4309ZM11.5711 30.07C11.0578 30.07 10.5978 29.9867 10.1911 29.82C9.78447 29.6533 9.4578 29.4067 9.21113 29.08C8.97113 28.7533 8.84447 28.36 8.83113 27.9H10.6511C10.6778 28.16 10.7678 28.36 10.9211 28.5C11.0745 28.6333 11.2745 28.7 11.5211 28.7C11.7745 28.7 11.9745 28.6433 12.1211 28.53C12.2678 28.41 12.3411 28.2467 12.3411 28.04C12.3411 27.8667 12.2811 27.7233 12.1611 27.61C12.0478 27.4967 11.9045 27.4033 11.7311 27.33C11.5645 27.2567 11.3245 27.1733 11.0111 27.08C10.5578 26.94 10.1878 26.8 9.90113 26.66C9.61447 26.52 9.3678 26.3133 9.16113 26.04C8.95447 25.7667 8.85113 25.41 8.85113 24.97C8.85113 24.3167 9.0878 23.8067 9.56113 23.44C10.0345 23.0667 10.6511 22.88 11.4111 22.88C12.1845 22.88 12.8078 23.0667 13.2811 23.44C13.7545 23.8067 14.0078 24.32 14.0411 24.98H12.1911C12.1778 24.7533 12.0945 24.5767 11.9411 24.45C11.7878 24.3167 11.5911 24.25 11.3511 24.25C11.1445 24.25 10.9778 24.3067 10.8511 24.42C10.7245 24.5267 10.6611 24.6833 10.6611 24.89C10.6611 25.1167 10.7678 25.2933 10.9811 25.42C11.1945 25.5467 11.5278 25.6833 11.9811 25.83C12.4345 25.9833 12.8011 26.13 13.0811 26.27C13.3678 26.41 13.6145 26.6133 13.8211 26.88C14.0278 27.1467 14.1311 27.49 14.1311 27.91C14.1311 28.31 14.0278 28.6733 13.8211 29C13.6211 29.3267 13.3278 29.5867 12.9411 29.78C12.5545 29.9733 12.0978 30.07 11.5711 30.07ZM17.8135 22.98C18.5535 22.98 19.2001 23.1267 19.7535 23.42C20.3068 23.7133 20.7335 24.1267 21.0335 24.66C21.3401 25.1867 21.4935 25.7967 21.4935 26.49C21.4935 27.1767 21.3401 27.7867 21.0335 28.32C20.7335 28.8533 20.3035 29.2667 19.7435 29.56C19.1901 29.8533 18.5468 30 17.8135 30H15.1835V22.98H17.8135ZM17.7035 28.52C18.3501 28.52 18.8535 28.3433 19.2135 27.99C19.5735 27.6367 19.7535 27.1367 19.7535 26.49C19.7535 25.8433 19.5735 25.34 19.2135 24.98C18.8535 24.62 18.3501 24.44 17.7035 24.44H16.8935V28.52H17.7035Z" fill="white"/>
</svg>
