<svg width="40" height="40" viewBox="0 0 40 40" fill="none" xmlns="http://www.w3.org/2000/svg">
<path d="M9 0.75H26.0439L34.25 8.28711V36C34.25 37.7949 32.7948 39.2499 31 39.25H9C7.20507 39.25 5.75 37.7949 5.75 36V4C5.75 2.20508 7.20508 0.75 9 0.75Z" stroke="#D0D5DD" stroke-width="1.5"/>
<mask id="path-2-inside-1_2001_3607" fill="white">
<path d="M25 1H33.5V9.5H26C25.4477 9.5 25 9.05229 25 8.5V1Z"/>
</mask>
<path d="M25 1H33.5H25ZM33.5 10.5H26C24.8954 10.5 24 9.60457 24 8.5H26H33.5V10.5ZM26 10.5C24.8954 10.5 24 9.60457 24 8.5V1H26V8.5V10.5ZM33.5 1V9.5V1Z" fill="#D0D5DD" mask="url(#path-2-inside-1_2001_3607)"/>
<rect x="1" y="20" width="30" height="13" rx="2" fill="#DC6803"/>
<path d="M13.6823 22.98L11.8523 30H9.78234L8.66234 25.38L7.50234 30H5.43234L3.65234 22.98H5.48234L6.49234 28.09L7.74234 22.98H9.62234L10.8223 28.09L11.8423 22.98H13.6823ZM18.9099 28.76H16.2899L15.8699 30H14.0799L16.6199 22.98H18.5999L21.1399 30H19.3299L18.9099 28.76ZM18.4699 27.44L17.5999 24.87L16.7399 27.44H18.4699ZM28.503 22.98L26.013 30H23.873L21.383 22.98H23.203L24.943 28.28L26.693 22.98H28.503Z" fill="white"/>
</svg>
